<svg width="28" height="7" viewBox="0 0 28 7" fill="none" xmlns="http://www.w3.org/2000/svg">
<path id="Vector" d="M3.11111 0C3.93623 0 4.72755 0.36875 5.311 1.02513C5.89445 1.6815 6.22222 2.57174 6.22222 3.5C6.22222 4.42826 5.89445 5.3185 5.311 5.97487C4.72755 6.63125 3.93623 7 3.11111 7C2.28599 7 1.49467 6.63125 0.911223 5.97487C0.327777 5.3185 0 4.42826 0 3.5C0 2.57174 0.327777 1.6815 0.911223 1.02513C1.49467 0.36875 2.28599 0 3.11111 0ZM14 0C14.8251 0 15.6164 0.36875 16.1999 1.02513C16.7833 1.6815 17.1111 2.57174 17.1111 3.5C17.1111 4.42826 16.7833 5.3185 16.1999 5.97487C15.6164 6.63125 14.8251 7 14 7C13.1749 7 12.3836 6.63125 11.8001 5.97487C11.2167 5.3185 10.8889 4.42826 10.8889 3.5C10.8889 2.57174 11.2167 1.6815 11.8001 1.02513C12.3836 0.36875 13.1749 0 14 0ZM24.8889 0C25.714 0 26.5053 0.36875 27.0888 1.02513C27.6722 1.6815 28 2.57174 28 3.5C28 4.42826 27.6722 5.3185 27.0888 5.97487C26.5053 6.63125 25.714 7 24.8889 7C24.0638 7 23.2724 6.63125 22.689 5.97487C22.1056 5.3185 21.7778 4.42826 21.7778 3.5C21.7778 2.57174 22.1056 1.6815 22.689 1.02513C23.2724 0.36875 24.0638 0 24.8889 0Z" fill="#45A29E"/>
</svg>
