<svg width="32" height="39" viewBox="0 0 32 39" fill="none" xmlns="http://www.w3.org/2000/svg">
<path d="M32 28.0036L31.6349 27.6848C30.5991 26.7717 29.6925 25.7245 28.9396 24.5716C28.1173 22.9804 27.6244 21.2428 27.4899 19.4607V14.2117C27.497 11.4125 26.4709 8.70707 24.6043 6.60374C22.7377 4.50041 20.1591 3.14395 17.353 2.7892V1.41851C17.353 1.0423 17.202 0.681494 16.9331 0.415472C16.6643 0.14945 16.2997 0 15.9195 0C15.5393 0 15.1746 0.14945 14.9058 0.415472C14.6369 0.681494 14.4859 1.0423 14.4859 1.41851V2.81045C11.705 3.19077 9.15755 4.55544 7.31547 6.6517C5.47338 8.74796 4.46145 11.4338 4.46711 14.2117V19.4607C4.33262 21.2428 3.83976 22.9804 3.01745 24.5716C2.27746 25.7216 1.38544 26.7686 0.365101 27.6848L0 28.0036V31H32V28.0036Z" fill="#C5C6C7"/>
<path d="M12 35C12.1336 36.1087 12.6123 37.1245 13.3475 37.8597C14.0827 38.595 15.0249 39 16 39C16.9751 39 17.9173 38.595 18.6525 37.8597C19.3877 37.1245 19.8664 36.1087 20 35H12Z" fill="#C5C6C7"/>
</svg>
