<svg width="27" height="31" viewBox="0 0 27 31" fill="none" xmlns="http://www.w3.org/2000/svg">
<path id="Vector" d="M5.98338 14.7619H17.9501V17.7143H5.98338V14.7619ZM8.97507 26.5714H2.99169V2.95238H13.4626V10.3333H20.9418V14.9095L23.9335 11.9571V8.85714L14.9584 0H2.99169C2.19824 0 1.4373 0.311053 0.876246 0.864732C0.315195 1.41841 0 2.16936 0 2.95238V26.5714C0 27.3544 0.315195 28.1054 0.876246 28.6591C1.4373 29.2128 2.19824 29.5238 2.99169 29.5238H8.97507V26.5714ZM5.98338 23.619H12.1163L13.4626 22.2905V20.6667H5.98338V23.619ZM24.2327 16.2381C24.3823 16.2381 24.6814 16.3857 24.831 16.5333L26.7756 18.4524C27.0748 18.7476 27.0748 19.3381 26.7756 19.6333L25.2798 21.1095L22.1385 18.0095L23.6343 16.5333C23.7839 16.3857 23.9335 16.2381 24.2327 16.2381ZM24.2327 21.9952L15.108 31H11.9668V27.9L21.0914 18.8952L24.2327 21.9952Z" fill="#66FCF1"/>
</svg>
