<svg width="33" height="33" viewBox="0 0 33 33" fill="none" xmlns="http://www.w3.org/2000/svg">
<path fill-rule="evenodd" clip-rule="evenodd" d="M16.5 1.67827e-05C20.6911 -0.00596774 24.7263 1.58876 27.781 4.45832L28.1671 4.83286C29.7013 6.36354 30.918 8.18219 31.7473 10.1844C32.5767 12.1866 33.0024 14.3329 33 16.5C33 25.613 25.6129 33 16.5 33C7.38705 33 0 25.613 0 16.5C0 7.38706 7.38705 1.67827e-05 16.5 1.67827e-05ZM18.15 3.40232V4.95001C18.15 5.38762 17.9762 5.80731 17.6667 6.11674C17.3573 6.42618 16.9376 6.60001 16.5 6.60001C16.0624 6.60001 15.6427 6.42618 15.3333 6.11674C15.0238 5.80731 14.85 5.38762 14.85 4.95001V3.40232C12.5003 3.69499 10.2735 4.61743 8.4051 6.07201L9.49905 7.16596C9.65664 7.31817 9.78234 7.50024 9.86881 7.70155C9.95529 7.90285 10.0008 8.11936 10.0027 8.33845C10.0046 8.55754 9.96287 8.77481 9.8799 8.97759C9.79694 9.18037 9.67442 9.36459 9.5195 9.51951C9.36458 9.67444 9.18035 9.79695 8.97757 9.87992C8.77479 9.96288 8.55752 10.0046 8.33844 10.0027C8.11935 10.0008 7.90284 9.9553 7.70153 9.86883C7.50022 9.78235 7.31815 9.65665 7.16595 9.49906L6.072 8.40511C4.61742 10.2735 3.69498 12.5003 3.4023 14.85H4.95C5.38761 14.85 5.80729 15.0238 6.11672 15.3333C6.42616 15.6427 6.6 16.0624 6.6 16.5C6.6 16.9376 6.42616 17.3573 6.11672 17.6667C5.80729 17.9762 5.38761 18.15 4.95 18.15H3.4023C3.80495 21.3396 5.35768 24.2727 7.76914 26.3989C10.1806 28.5251 13.2851 29.6982 16.5 29.6982C19.7149 29.6982 22.8194 28.5251 25.2308 26.3989C27.6423 24.2727 29.195 21.3396 29.5977 18.15H28.05C27.6124 18.15 27.1927 17.9762 26.8833 17.6667C26.5738 17.3573 26.4 16.9376 26.4 16.5C26.4 16.0624 26.5738 15.6427 26.8833 15.3333C27.1927 15.0238 27.6124 14.85 28.05 14.85H29.5977C29.305 12.5003 28.3826 10.2735 26.928 8.40511L20.9682 14.3666C21.4715 15.4202 21.5861 16.6179 21.2917 17.7479C20.9974 18.8779 20.313 19.8675 19.3596 20.5417C18.4062 21.2159 17.2451 21.5313 16.0816 21.4322C14.9181 21.3331 13.8271 20.8259 13.0014 20.0002C12.1757 19.1746 11.6685 18.0835 11.5694 16.92C11.4704 15.7566 11.7858 14.5955 12.46 13.6421C13.1342 12.6887 14.1238 12.0043 15.2537 11.7099C16.3837 11.4156 17.5814 11.5302 18.6351 12.0335L24.5949 6.07201C22.7265 4.61743 20.4997 3.69499 18.15 3.40232ZM16.5 14.85C16.0624 14.85 15.6427 15.0238 15.3333 15.3333C15.0238 15.6427 14.85 16.0624 14.85 16.5C14.85 16.9376 15.0238 17.3573 15.3333 17.6667C15.6427 17.9762 16.0624 18.15 16.5 18.15C16.9376 18.15 17.3573 17.9762 17.6667 17.6667C17.9762 17.3573 18.15 16.9376 18.15 16.5C18.15 16.0624 17.9762 15.6427 17.6667 15.3333C17.3573 15.0238 16.9376 14.85 16.5 14.85Z" fill="#C5C6C7"/>
</svg>
