<svg width="39" height="34" viewBox="0 0 39 34" fill="none" xmlns="http://www.w3.org/2000/svg">
<g id="Driver icon">
<g id="Group 3">
<path id="Vector" d="M26.325 15.1931C29.8251 15.1931 32.6625 12.4636 32.6625 9.09655C32.6625 5.72952 29.8251 3 26.325 3C22.8249 3 19.9875 5.72952 19.9875 9.09655C19.9875 12.4636 22.8249 15.1931 26.325 15.1931Z" fill="#66FCF1" fill-opacity="0.7"/>
<path id="Vector_2" d="M39 26.6241C39 30.4116 39 33.4827 26.325 33.4827C13.65 33.4827 13.65 30.4116 13.65 26.6241C13.65 22.8366 19.3252 19.7655 26.325 19.7655C33.3248 19.7655 39 22.8366 39 26.6241Z" fill="#66FCF1" fill-opacity="0.7"/>
</g>
<g id="Group 2">
<path id="Vector_3" d="M14.1375 13.6C18.0415 13.6 21.2063 10.5555 21.2063 6.8C21.2063 3.04446 18.0415 0 14.1375 0C10.2335 0 7.06876 3.04446 7.06876 6.8C7.06876 10.5555 10.2335 13.6 14.1375 13.6Z" fill="#66FCF1"/>
<path id="Vector_4" d="M28.275 26.35C28.275 30.5745 28.275 34 14.1375 34C0 34 0 30.5745 0 26.35C0 22.1255 6.33007 18.7 14.1375 18.7C21.9449 18.7 28.275 22.1255 28.275 26.35Z" fill="#66FCF1"/>
</g>
</g>
</svg>
