<svg width="36" height="36" viewBox="0 0 36 36" fill="none" xmlns="http://www.w3.org/2000/svg">
<path d="M25.5296 1.31969L22.1228 4.72626L31.2734 13.8761L34.6802 10.4696C36.4399 8.70997 36.4399 5.85943 34.6802 4.09984L31.9069 1.31969C30.1471 -0.439897 27.2964 -0.439897 25.5367 1.31969H25.5296ZM20.532 6.31693L4.12431 22.7304C3.39226 23.4624 2.85731 24.3703 2.56167 25.3627L0.0699012 33.8299C-0.106071 34.4281 0.0558234 35.0686 0.492236 35.505C0.928648 35.9414 1.56919 36.1033 2.16046 35.9343L10.6283 33.4428C11.6207 33.1472 12.5288 32.6122 13.2608 31.8802L29.6826 15.4668L20.532 6.31693Z" fill="#66FCF1"/>
</svg>
