<svg width="36" height="36" viewBox="0 0 36 36" fill="none" xmlns="http://www.w3.org/2000/svg">
<path d="M27.9025 34.4692L27.8993 34.4675L18.7242 29.4095L18 29.0103L17.2758 29.4095L8.10268 34.4664C8.10244 34.4665 8.10219 34.4666 8.10195 34.4668C8.05764 34.4909 8.01352 34.4991 7.97289 34.496C7.93186 34.4928 7.88571 34.4775 7.84038 34.443L6.9317 35.6364L7.84037 34.443C7.79431 34.4079 7.74969 34.353 7.72061 34.2783C7.6915 34.2034 7.68188 34.1182 7.6953 34.0342C7.69534 34.0339 7.69539 34.0336 7.69544 34.0333L9.44654 23.3235L9.56897 22.5747L9.03833 22.0324L1.61554 14.4463C1.61543 14.4462 1.61532 14.4461 1.61522 14.446C1.57028 14.3998 1.53166 14.334 1.51249 14.2524C1.49322 14.1704 1.49642 14.0838 1.52088 14.0049C1.54525 13.9263 1.58729 13.8657 1.63313 13.8251L0.639248 12.7017L1.63313 13.8251C1.67817 13.7853 1.72514 13.7658 1.76661 13.7594C1.76673 13.7594 1.76686 13.7593 1.76698 13.7593L12.0245 12.1968L12.8151 12.0764L13.1557 11.3529L17.7138 1.67153C17.7515 1.6146 17.797 1.57294 17.8428 1.54544C17.8958 1.51367 17.95 1.5 18.0009 1.5C18.0518 1.5 18.106 1.51368 18.159 1.54544C18.2048 1.57293 18.2503 1.61457 18.288 1.67147L22.8442 11.3527L23.1848 12.0764L23.9755 12.1968L34.233 13.7593C34.2331 13.7593 34.2332 13.7593 34.2333 13.7594C34.2748 13.7658 34.3218 13.7853 34.3669 13.8251L35.3607 12.7017L34.3669 13.8251C34.4127 13.8657 34.4548 13.9263 34.4791 14.0049C34.5036 14.0838 34.5068 14.1705 34.4875 14.2524C34.4683 14.334 34.4298 14.3998 34.3849 14.4459C34.3847 14.446 34.3846 14.4461 34.3845 14.4463L26.9617 22.0324L26.4309 22.5748L26.5535 23.3237L28.3068 34.0359C28.3175 34.1012 28.3143 34.1683 28.298 34.2312C28.2817 34.294 28.2538 34.3475 28.2203 34.3891C28.1869 34.4306 28.1498 34.4585 28.1147 34.4757C28.0821 34.4916 28.0469 34.4996 28.0137 34.5C27.9786 34.4995 27.9407 34.4904 27.9025 34.4692Z" fill="#FFEE51" stroke="#FFEE51" stroke-width="3"/>
</svg>
