<svg width="24" height="24" viewBox="0 0 24 24" fill="none" xmlns="http://www.w3.org/2000/svg">
<path d="M18.6748 24C18.4803 23.9995 18.2887 23.9494 18.1168 23.854L12 20.4821L5.88323 23.854C5.68518 23.9628 5.46207 24.0115 5.23907 23.9944C5.01607 23.9774 4.80205 23.8954 4.62113 23.7576C4.44022 23.6199 4.2996 23.4319 4.21514 23.2148C4.13068 22.9978 4.10574 22.7603 4.14313 22.5292L5.3108 15.3876L0.361699 10.3296C0.201597 10.1658 0.0883874 9.9582 0.0348528 9.73041C-0.0186817 9.50263 -0.0104086 9.26369 0.0587381 9.04057C0.127885 8.81746 0.255151 8.61906 0.426166 8.46777C0.59718 8.31648 0.805132 8.21833 1.02654 8.18441L7.86575 7.14262L10.9247 0.645268C11.0349 0.448788 11.1922 0.285894 11.3809 0.172715C11.5696 0.0595369 11.7832 0 12.0006 0C12.218 0 12.4316 0.0595369 12.6203 0.172715C12.809 0.285894 12.9663 0.448788 13.0765 0.645268L16.1342 7.14262L22.9735 8.18441C23.1949 8.21833 23.4028 8.31648 23.5738 8.46777C23.7448 8.61906 23.8721 8.81746 23.9413 9.04057C24.0104 9.26369 24.0187 9.50263 23.9651 9.73041C23.9116 9.9582 23.7984 10.1658 23.6383 10.3296L18.6892 15.3876L19.8581 22.5292C19.8876 22.7097 19.8792 22.8948 19.8334 23.0716C19.7876 23.2483 19.7056 23.4125 19.593 23.5525C19.4804 23.6926 19.34 23.8052 19.1817 23.8825C19.0233 23.9598 18.8495 23.9999 18.6748 24Z" fill="#66FCF1"/>
</svg>
