<svg width="24" height="22" viewBox="0 0 24 22" fill="none" xmlns="http://www.w3.org/2000/svg">
<path fill-rule="evenodd" clip-rule="evenodd" d="M3.70588 0H21L8.41976 12C8.21661 11.5035 7.88618 11.0635 7.45871 10.7203C7.17706 10.487 6.783 10.2761 5.99735 9.8531L2.39894 7.92066C1.22665 7.29262 0.641118 6.978 0.321176 6.47133C0 5.96347 0 5.35075 0 4.12765V3.31461C0 1.75216 7.36293e-08 0.969757 0.543529 0.484289C1.08459 0 1.95794 0 3.70588 0Z" fill="#6CF3E9"/>
<path opacity="0.5" d="M24 4.28271V3.43937C24 1.81869 24 1.00712 23.4661 0.503561C22.9345 -7.28509e-08 22.0766 0 20.3595 0L8 12.4472C8.06068 12.6049 8.10922 12.7687 8.14683 12.9398C8.2245 13.2881 8.2245 13.6964 8.2245 14.5116V17.775C8.2245 18.886 8.2245 19.4421 8.5303 19.8748C8.8361 20.3087 9.37975 20.5226 10.4646 20.9503C12.7448 21.8475 13.8843 22.296 14.6949 21.7851C15.5055 21.2755 15.5055 20.1082 15.5055 17.7737V14.5104C15.5055 13.6964 15.5055 13.2881 15.5819 12.9398C15.7347 12.2273 16.119 11.5864 16.6741 11.1187C16.9496 10.8779 17.3355 10.6591 18.1085 10.2203L21.6434 8.21587C22.7938 7.56442 23.3702 7.23808 23.6845 6.71252C24 6.18696 24 5.55139 24 4.28271Z" fill="#64E6E0"/>
</svg>
