<svg width="32" height="32" viewBox="0 0 32 32" fill="none" xmlns="http://www.w3.org/2000/svg">
<path d="M15.9998 9.6C17.7445 9.6 19.4176 10.2743 20.6513 11.4745C21.8849 12.6747 22.578 14.3026 22.578 16C22.578 17.6974 21.8849 19.3253 20.6513 20.5255C19.4176 21.7257 17.7445 22.4 15.9998 22.4C14.2552 22.4 12.5821 21.7257 11.3484 20.5255C10.1148 19.3253 9.42173 17.6974 9.42173 16C9.42173 14.3026 10.1148 12.6747 11.3484 11.4745C12.5821 10.2743 14.2552 9.6 15.9998 9.6ZM15.9998 12.8C15.1275 12.8 14.2909 13.1371 13.6741 13.7373C13.0573 14.3374 12.7108 15.1513 12.7108 16C12.7108 16.8487 13.0573 17.6626 13.6741 18.2627C14.2909 18.8629 15.1275 19.2 15.9998 19.2C16.8722 19.2 17.7087 18.8629 18.3256 18.2627C18.9424 17.6626 19.2889 16.8487 19.2889 16C19.2889 15.1513 18.9424 14.3374 18.3256 13.7373C17.7087 13.1371 16.8722 12.8 15.9998 12.8ZM12.7108 32C12.2997 32 11.9543 31.712 11.8885 31.328L11.28 27.088C10.244 26.688 9.35595 26.144 8.5008 25.504L4.40592 27.12C4.04412 27.248 3.6001 27.12 3.40276 26.768L0.113704 21.232C0.0130512 21.0671 -0.0224324 20.8723 0.0138883 20.6838C0.0502091 20.4953 0.155847 20.3262 0.311047 20.208L3.781 17.552L3.66588 16L3.781 14.4L0.311047 11.792C0.155847 11.6738 0.0502091 11.5047 0.0138883 11.3162C-0.0224324 11.1277 0.0130512 10.9329 0.113704 10.768L3.40276 5.232C3.6001 4.88 4.04412 4.736 4.40592 4.88L8.5008 6.48C9.35595 5.856 10.244 5.312 11.28 4.912L11.8885 0.672C11.9543 0.288 12.2997 0 12.7108 0H19.2889C19.7 0 20.0454 0.288 20.1112 0.672L20.7196 4.912C21.7557 5.312 22.6437 5.856 23.4989 6.48L27.5938 4.88C27.9556 4.736 28.3996 4.88 28.5969 5.232L31.886 10.768C32.0998 11.12 32.0011 11.552 31.6886 11.792L28.2187 14.4L28.3338 16L28.2187 17.6L31.6886 20.208C32.0011 20.448 32.0998 20.88 31.886 21.232L28.5969 26.768C28.3996 27.12 27.9556 27.264 27.5938 27.12L23.4989 25.52C22.6437 26.144 21.7557 26.688 20.7196 27.088L20.1112 31.328C20.0454 31.712 19.7 32 19.2889 32H12.7108ZM14.7664 3.2L14.158 7.376C12.1845 7.776 10.4413 8.8 9.17505 10.224L5.21174 8.56L3.97834 10.64L7.4483 13.12C6.79049 14.9867 6.79049 17.0133 7.4483 18.88L3.9619 21.376L5.19529 23.456L9.1915 21.792C10.4578 23.2 12.1845 24.224 14.1415 24.608L14.75 28.8H17.2497L17.8582 24.624C19.8151 24.224 21.5419 23.2 22.8082 21.792L26.8044 23.456L28.0378 21.376L24.5514 18.896C25.2092 17.024 25.2092 14.992 24.5514 13.12L28.0213 10.64L26.7879 8.56L22.8246 10.224C21.5324 8.76852 19.7795 7.77228 17.8417 7.392L17.2332 3.2H14.7664Z" fill="#1F2833"/>
</svg>
