<svg width="24" height="24" viewBox="0 0 24 24" fill="none" xmlns="http://www.w3.org/2000/svg">
<path d="M18.6017 22.9795L18.5995 22.9783L12.4828 19.6063L12 19.3402L11.5172 19.6063L5.40179 22.9776C5.40167 22.9776 5.40155 22.9777 5.40143 22.9778C5.37184 22.9939 5.34238 22.9994 5.31526 22.9973C5.28791 22.9952 5.25714 22.985 5.22691 22.962C5.1962 22.9386 5.16646 22.902 5.14708 22.8522C5.12766 22.8023 5.12125 22.7454 5.1302 22.6895C5.13023 22.6893 5.13026 22.6891 5.13029 22.6888L6.29769 15.549L6.37931 15.0498L6.02555 14.6882L1.07703 9.63085C1.07697 9.63079 1.07691 9.63073 1.07685 9.63068C1.04688 9.59992 1.02111 9.55603 1.00833 9.50162C0.995483 9.44697 0.997611 9.38922 1.01392 9.3366C1.03016 9.28418 1.05819 9.24379 1.08875 9.21675C1.11877 9.1902 1.15007 9.17721 1.1777 9.17292C1.1778 9.1729 1.17789 9.17289 1.17799 9.17288L8.01634 8.13122L8.5434 8.05093L8.77049 7.56858L11.8092 1.11435C11.8343 1.0764 11.8647 1.04862 11.8952 1.0303C11.9305 1.00912 11.9667 1 12.0006 1C12.0345 1 12.0707 1.00912 12.106 1.0303C12.1365 1.04862 12.1669 1.07638 12.192 1.11431L15.2294 7.56844L15.4565 8.05092L15.9837 8.13122L22.822 9.17288C22.8221 9.17289 22.8222 9.17291 22.8223 9.17292C22.8499 9.17721 22.8812 9.1902 22.9112 9.21675C22.9418 9.24379 22.9698 9.28418 22.9861 9.3366C23.0024 9.38922 23.0045 9.44697 22.9917 9.50162C22.9789 9.55597 22.9532 9.59984 22.9232 9.63059C22.9231 9.63068 22.9231 9.63076 22.923 9.63085L17.9744 14.6882L17.6206 15.0499L17.7023 15.5491L18.8712 22.6906C18.8783 22.7341 18.8762 22.7789 18.8653 22.8208C18.8545 22.8627 18.8359 22.8983 18.8135 22.9261C18.7913 22.9537 18.7665 22.9724 18.7431 22.9838C18.7214 22.9944 18.6979 22.9997 18.6758 23C18.6523 22.9997 18.6271 22.9936 18.6017 22.9795Z" fill="#45A29E" stroke="#45A29E" stroke-width="2"/>
</svg>
