<svg width="43" height="29" viewBox="0 0 43 29" fill="none" xmlns="http://www.w3.org/2000/svg">
<path d="M42.3634 10.5258L39.8863 4.48642C39.6761 3.97516 39.3132 3.5373 38.8447 3.22962C38.3762 2.92194 37.8237 2.75863 37.2589 2.76087H31.1405V1.38044C31.1405 1.01432 30.9913 0.663203 30.7259 0.404321C30.4604 0.145439 30.1004 0 29.725 0H2.83095C2.08014 0 1.36007 0.290877 0.829167 0.808641C0.29826 1.32641 0 2.02864 0 2.76087V22.087C0 22.8192 0.29826 23.5215 0.829167 24.0392C1.36007 24.557 2.08014 24.8479 2.83095 24.8479H5.83884C6.15067 26.0356 6.85897 27.0884 7.85209 27.8402C8.8452 28.5919 10.0666 29 11.3238 29C12.581 29 13.8024 28.5919 14.7955 27.8402C15.7886 27.0884 16.4969 26.0356 16.8088 24.8479H25.6555C25.9673 26.0356 26.6756 27.0884 27.6688 27.8402C28.6619 28.5919 29.8833 29 31.1405 29C32.3977 29 33.6191 28.5919 34.6122 27.8402C35.6053 27.0884 36.3136 26.0356 36.6254 24.8479H39.6333C40.3841 24.8479 41.1042 24.557 41.6351 24.0392C42.166 23.5215 42.4643 22.8192 42.4643 22.087V11.0435C42.4645 10.8663 42.4303 10.6906 42.3634 10.5258ZM11.3238 26.2283C10.7639 26.2283 10.2166 26.0664 9.75102 25.763C9.28547 25.4596 8.92262 25.0285 8.70835 24.524C8.49408 24.0195 8.43802 23.4644 8.54725 22.9288C8.65649 22.3932 8.92611 21.9013 9.32202 21.5152C9.71794 21.1291 10.2224 20.8661 10.7715 20.7596C11.3207 20.6531 11.8899 20.7077 12.4072 20.9167C12.9245 21.1257 13.3666 21.4795 13.6777 21.9336C13.9887 22.3876 14.1548 22.9214 14.1548 23.4674C14.1548 24.1997 13.8565 24.9019 13.3256 25.4197C12.7947 25.9374 12.0746 26.2283 11.3238 26.2283ZM2.83095 13.8044V2.76087H28.3095V13.8044H2.83095ZM31.1405 26.2283C30.5806 26.2283 30.0332 26.0664 29.5677 25.763C29.1021 25.4596 28.7393 25.0285 28.525 24.524C28.3107 24.0195 28.2547 23.4644 28.3639 22.9288C28.4732 22.3932 28.7428 21.9013 29.1387 21.5152C29.5346 21.1291 30.039 20.8661 30.5882 20.7596C31.1373 20.6531 31.7065 20.7077 32.2238 20.9167C32.7411 21.1257 33.1833 21.4795 33.4943 21.9336C33.8054 22.3876 33.9714 22.9214 33.9714 23.4674C33.9714 24.1997 33.6732 24.9019 33.1423 25.4197C32.6114 25.9374 31.8913 26.2283 31.1405 26.2283ZM31.1405 9.66306V5.52175H37.2589L38.9574 9.66306H31.1405Z" fill="#C5C6C7"/>
</svg>
