<svg width="46" height="46" viewBox="0 0 46 46" fill="none" xmlns="http://www.w3.org/2000/svg">
<g id="Group">
<path id="Vector" fill-rule="evenodd" clip-rule="evenodd" d="M1.09472 12.818C1.05322 14.4103 1.05322 16.2188 1.05322 18.2894V22.6579H18.7388C17.994 22.3071 17.1947 22.0863 16.3755 22.0048L11.9743 21.5658C9.10641 21.2796 7.67138 21.1355 6.5072 20.6637C5.28754 20.1692 4.19537 19.4055 3.31224 18.4297C2.42911 17.4539 1.77784 16.2912 1.40706 15.0284C1.22578 14.4081 1.13622 13.7266 1.09472 12.818ZM44.4622 9.06116L43.6453 33.5789C42.6069 33.5791 41.5787 33.3747 40.6193 32.9774C39.6599 32.5802 38.7881 31.9978 38.0538 31.2637L35.59 28.7999C34.7818 27.9917 34.3777 27.5876 33.9693 27.3299C33.2702 26.8872 32.4597 26.6521 31.6322 26.6521C30.8047 26.6521 29.9942 26.8872 29.2951 27.3299C28.8866 27.5876 28.4825 27.9917 27.6744 28.7999L25.9838 30.4904C25.7305 30.7428 25.4081 30.9144 25.0573 30.9838C24.7066 31.0532 24.3431 31.0171 24.0128 30.8802C23.6825 30.7433 23.4001 30.5117 23.2012 30.2146C23.0024 29.9174 22.8959 29.5681 22.8953 29.2105V44.5H27.2637C35.5004 44.5 39.6198 44.5 42.1775 41.9401C44.7374 39.3824 44.7374 35.2629 44.7374 27.0263V18.2894C44.7374 14.3732 44.7374 11.3873 44.4622 9.06116Z" fill="#337E79"/>
<path id="Vector_2" d="M40.6334 4.91774C39.8274 4.11395 38.696 3.58755 36.5599 3.30142C34.3604 3.00437 31.4444 3 27.2639 3H18.527C14.3464 3 11.4305 3.00437 9.23102 3.30142C7.09486 3.58755 5.96344 4.11176 5.15529 4.91992C4.3515 5.72589 3.8251 6.85732 3.53897 8.99347C3.24192 11.193 3.23755 14.1089 3.23755 18.2895V20.4737H18.6472C19.5754 20.4737 20.471 20.4737 21.2136 20.5742C22.0523 20.6856 23.0068 20.9608 23.7997 21.7536C24.5926 22.5465 24.8678 23.501 24.9792 24.3397C25.0797 25.0802 25.0797 25.9801 25.0797 26.9084V42.3158H27.2639C31.4444 42.3158 34.3604 42.3114 36.5599 42.0166C38.696 41.7282 39.8274 41.204 40.6334 40.3959C41.4394 39.5899 41.9658 38.4585 42.2541 36.3223C42.549 34.1228 42.5533 31.2069 42.5533 27.0263V18.2895C42.5533 14.1089 42.549 11.193 42.2541 8.99347C41.9658 6.85732 41.4416 5.72589 40.6334 4.91774ZM40.6334 4.91774L42.1405 3.41063" stroke="#337E79" stroke-width="6"/>
<path id="Vector_3" d="M31.6321 18.2895C34.0447 18.2895 36.0005 16.3336 36.0005 13.921C36.0005 11.5084 34.0447 9.55261 31.6321 9.55261C29.2195 9.55261 27.2637 11.5084 27.2637 13.921C27.2637 16.3336 29.2195 18.2895 31.6321 18.2895Z" fill="#337E79"/>
<path id="Vector_4" d="M14.1585 31.3948V29.2106H16.3427V31.3948H14.1585ZM4.60257 41.8353C4.38007 42.0253 4.12167 42.1686 3.84271 42.2569C3.56375 42.3451 3.26991 42.3763 2.97863 42.3488C2.68735 42.3212 2.40458 42.2355 2.14709 42.0965C1.8896 41.9576 1.66264 41.7684 1.4797 41.5401C1.29675 41.3117 1.16153 41.049 1.08208 40.7674C1.00263 40.4858 0.980557 40.1912 1.01718 39.9009C1.0538 39.6106 1.14836 39.3307 1.29525 39.0776C1.44215 38.8246 1.63838 38.6037 1.8723 38.4279L4.60257 41.8353ZM11.9743 42.3158V31.3948H16.3427V42.3158H11.9743ZM14.1585 33.579H3.23743V29.2106H14.1585V33.579ZM15.5236 33.0985L4.60257 41.8353L1.8723 38.4279L12.7934 29.6911L15.5236 33.0985Z" fill="#337E79"/>
</g>
</svg>
