<svg width="32" height="32" viewBox="0 0 32 32" fill="none" xmlns="http://www.w3.org/2000/svg">
<g id="mingcute:more-1-fill" clip-path="url(#clip0_138_448)">
<g id="Group">
<path id="Vector" d="M6.66667 13.3333C7.37391 13.3333 8.05219 13.6142 8.55229 14.1143C9.05238 14.6144 9.33333 15.2927 9.33333 15.9999C9.33333 16.7072 9.05238 17.3854 8.55229 17.8855C8.05219 18.3856 7.37391 18.6666 6.66667 18.6666C5.95942 18.6666 5.28115 18.3856 4.78105 17.8855C4.28095 17.3854 4 16.7072 4 15.9999C4 15.2927 4.28095 14.6144 4.78105 14.1143C5.28115 13.6142 5.95942 13.3333 6.66667 13.3333ZM16 13.3333C16.7072 13.3333 17.3855 13.6142 17.8856 14.1143C18.3857 14.6144 18.6667 15.2927 18.6667 15.9999C18.6667 16.7072 18.3857 17.3854 17.8856 17.8855C17.3855 18.3856 16.7072 18.6666 16 18.6666C15.2928 18.6666 14.6145 18.3856 14.1144 17.8855C13.6143 17.3854 13.3333 16.7072 13.3333 15.9999C13.3333 15.2927 13.6143 14.6144 14.1144 14.1143C14.6145 13.6142 15.2928 13.3333 16 13.3333ZM25.3333 13.3333C26.0406 13.3333 26.7189 13.6142 27.219 14.1143C27.719 14.6144 28 15.2927 28 15.9999C28 16.7072 27.719 17.3854 27.219 17.8855C26.7189 18.3856 26.0406 18.6666 25.3333 18.6666C24.6261 18.6666 23.9478 18.3856 23.4477 17.8855C22.9476 17.3854 22.6667 16.7072 22.6667 15.9999C22.6667 15.2927 22.9476 14.6144 23.4477 14.1143C23.9478 13.6142 24.6261 13.3333 25.3333 13.3333Z" fill="#3F918E"/>
</g>
</g>
<defs>
<clipPath id="clip0_138_448">
<rect width="32" height="32" fill="white"/>
</clipPath>
</defs>
</svg>
